<?xml version="1.0" encoding="utf-8" standalone="no"?>
<!DOCTYPE svg PUBLIC "-//W3C//DTD SVG 1.1//EN"
  "http://www.w3.org/Graphics/SVG/1.1/DTD/svg11.dtd">
<!-- Created with matplotlib (http://matplotlib.org/) -->
<svg height="288pt" version="1.1" viewBox="0 0 432 288" width="432pt" xmlns="http://www.w3.org/2000/svg" xmlns:xlink="http://www.w3.org/1999/xlink">
 <defs>
  <style type="text/css">
*{stroke-linecap:butt;stroke-linejoin:round;stroke-miterlimit:100000;}
  </style>
 </defs>
 <g id="figure_1">
  <g id="patch_1">
   <path d="M 0 288 
L 432 288 
L 432 0 
L 0 0 
z
" style="fill:#ffffff;"/>
  </g>
  <g id="axes_1">
   <g id="patch_2">
    <path d="M 54 252 
L 388.8 252 
L 388.8 28.8 
L 54 28.8 
z
" style="fill:#ffffff;"/>
   </g>
   <g id="LineCollection_1">
    <path clip-path="url(#p59be309332)" d="M 54 249.525226 
L 54 249.398528 
" style="fill:none;stroke:#1b9e77;"/>
    <path clip-path="url(#p59be309332)" d="M 72.6 168.73197 
L 72.6 90.721024 
" style="fill:none;stroke:#1b9e77;"/>
    <path clip-path="url(#p59be309332)" d="M 91.2 188.254685 
L 91.2 80.279659 
" style="fill:none;stroke:#1b9e77;"/>
    <path clip-path="url(#p59be309332)" d="M 109.8 205.35117 
L 109.8 74.396334 
" style="fill:none;stroke:#1b9e77;"/>
    <path clip-path="url(#p59be309332)" d="M 128.4 227.313723 
L 128.4 141.148582 
" style="fill:none;stroke:#1b9e77;"/>
    <path clip-path="url(#p59be309332)" d="M 147 149.196531 
L 147 57.389504 
" style="fill:none;stroke:#1b9e77;"/>
    <path clip-path="url(#p59be309332)" d="M 165.6 126.766949 
L 165.6 55.24735 
" style="fill:none;stroke:#1b9e77;"/>
    <path clip-path="url(#p59be309332)" d="M 184.2 128.348988 
L 184.2 74.390544 
" style="fill:none;stroke:#1b9e77;"/>
    <path clip-path="url(#p59be309332)" d="M 202.8 129.584351 
L 202.8 66.980276 
" style="fill:none;stroke:#1b9e77;"/>
    <path clip-path="url(#p59be309332)" d="M 221.4 120.056551 
L 221.4 60.602635 
" style="fill:none;stroke:#1b9e77;"/>
    <path clip-path="url(#p59be309332)" d="M 240 110.918221 
L 240 49.850244 
" style="fill:none;stroke:#1b9e77;"/>
    <path clip-path="url(#p59be309332)" d="M 258.6 108.19032 
L 258.6 58.365975 
" style="fill:none;stroke:#1b9e77;"/>
    <path clip-path="url(#p59be309332)" d="M 277.2 107.251597 
L 277.2 57.784171 
" style="fill:none;stroke:#1b9e77;"/>
    <path clip-path="url(#p59be309332)" d="M 295.8 107.769374 
L 295.8 63.37211 
" style="fill:none;stroke:#1b9e77;"/>
    <path clip-path="url(#p59be309332)" d="M 314.4 107.648831 
L 314.4 67.146885 
" style="fill:none;stroke:#1b9e77;"/>
    <path clip-path="url(#p59be309332)" d="M 333 112.44192 
L 333 65.22815 
" style="fill:none;stroke:#1b9e77;"/>
    <path clip-path="url(#p59be309332)" d="M 351.6 111.30656 
L 351.6 65.40209 
" style="fill:none;stroke:#1b9e77;"/>
    <path clip-path="url(#p59be309332)" d="M 370.2 114.895325 
L 370.2 71.656632 
" style="fill:none;stroke:#1b9e77;"/>
   </g>
   <g id="line2d_1">
    <path clip-path="url(#p59be309332)" d="M 54 249.461877 
L 72.6 129.726497 
L 91.2 134.267172 
L 109.8 139.873752 
L 128.4 184.231152 
L 147 103.293018 
L 165.6 91.00715 
L 184.2 101.369766 
L 202.8 98.282313 
L 221.4 90.329593 
L 240 80.384233 
L 258.6 83.278147 
L 277.2 82.517884 
L 295.8 85.570742 
L 314.4 87.397858 
L 333 88.835035 
L 351.6 88.354325 
L 370.2 93.275979 
" style="fill:none;stroke:#1b9e77;stroke-linecap:square;"/>
    <defs>
     <path d="M 0 3 
C 0.795609 3 1.55874 2.683901 2.12132 2.12132 
C 2.683901 1.55874 3 0.795609 3 0 
C 3 -0.795609 2.683901 -1.55874 2.12132 -2.12132 
C 1.55874 -2.683901 0.795609 -3 0 -3 
C -0.795609 -3 -1.55874 -2.683901 -2.12132 -2.12132 
C -2.683901 -1.55874 -3 -0.795609 -3 0 
C -3 0.795609 -2.683901 1.55874 -2.12132 2.12132 
C -1.55874 2.683901 -0.795609 3 0 3 
z
" id="m702cb5c455" style="stroke:#000000;stroke-width:0.5;"/>
    </defs>
    <g clip-path="url(#p59be309332)">
     <use style="fill:#1b9e77;stroke:#000000;stroke-width:0.5;" x="54.0" xlink:href="#m702cb5c455" y="249.461877009"/>
     <use style="fill:#1b9e77;stroke:#000000;stroke-width:0.5;" x="72.6" xlink:href="#m702cb5c455" y="129.726496638"/>
     <use style="fill:#1b9e77;stroke:#000000;stroke-width:0.5;" x="91.2" xlink:href="#m702cb5c455" y="134.267172023"/>
     <use style="fill:#1b9e77;stroke:#000000;stroke-width:0.5;" x="109.8" xlink:href="#m702cb5c455" y="139.873751769"/>
     <use style="fill:#1b9e77;stroke:#000000;stroke-width:0.5;" x="128.4" xlink:href="#m702cb5c455" y="184.231152299"/>
     <use style="fill:#1b9e77;stroke:#000000;stroke-width:0.5;" x="147.0" xlink:href="#m702cb5c455" y="103.293017691"/>
     <use style="fill:#1b9e77;stroke:#000000;stroke-width:0.5;" x="165.6" xlink:href="#m702cb5c455" y="91.0071495136"/>
     <use style="fill:#1b9e77;stroke:#000000;stroke-width:0.5;" x="184.2" xlink:href="#m702cb5c455" y="101.369765613"/>
     <use style="fill:#1b9e77;stroke:#000000;stroke-width:0.5;" x="202.8" xlink:href="#m702cb5c455" y="98.2823133251"/>
     <use style="fill:#1b9e77;stroke:#000000;stroke-width:0.5;" x="221.4" xlink:href="#m702cb5c455" y="90.3295928699"/>
     <use style="fill:#1b9e77;stroke:#000000;stroke-width:0.5;" x="240.0" xlink:href="#m702cb5c455" y="80.38423251"/>
     <use style="fill:#1b9e77;stroke:#000000;stroke-width:0.5;" x="258.6" xlink:href="#m702cb5c455" y="83.2781473415"/>
     <use style="fill:#1b9e77;stroke:#000000;stroke-width:0.5;" x="277.2" xlink:href="#m702cb5c455" y="82.5178839107"/>
     <use style="fill:#1b9e77;stroke:#000000;stroke-width:0.5;" x="295.8" xlink:href="#m702cb5c455" y="85.5707419245"/>
     <use style="fill:#1b9e77;stroke:#000000;stroke-width:0.5;" x="314.4" xlink:href="#m702cb5c455" y="87.3978583163"/>
     <use style="fill:#1b9e77;stroke:#000000;stroke-width:0.5;" x="333.0" xlink:href="#m702cb5c455" y="88.8350348582"/>
     <use style="fill:#1b9e77;stroke:#000000;stroke-width:0.5;" x="351.6" xlink:href="#m702cb5c455" y="88.3543251096"/>
     <use style="fill:#1b9e77;stroke:#000000;stroke-width:0.5;" x="370.2" xlink:href="#m702cb5c455" y="93.275978508"/>
    </g>
   </g>
   <g id="line2d_2">
    <defs>
     <path d="M 3 0 
L -3 -0 
" id="m956397a2ce" style="stroke:#1b9e77;stroke-width:0.5;"/>
    </defs>
    <g clip-path="url(#p59be309332)">
     <use style="fill:#1b9e77;stroke:#1b9e77;stroke-width:0.5;" x="54.0" xlink:href="#m956397a2ce" y="249.525226432"/>
     <use style="fill:#1b9e77;stroke:#1b9e77;stroke-width:0.5;" x="72.6" xlink:href="#m956397a2ce" y="168.731969724"/>
     <use style="fill:#1b9e77;stroke:#1b9e77;stroke-width:0.5;" x="91.2" xlink:href="#m956397a2ce" y="188.254684832"/>
     <use style="fill:#1b9e77;stroke:#1b9e77;stroke-width:0.5;" x="109.8" xlink:href="#m956397a2ce" y="205.351170002"/>
     <use style="fill:#1b9e77;stroke:#1b9e77;stroke-width:0.5;" x="128.4" xlink:href="#m956397a2ce" y="227.31372303"/>
     <use style="fill:#1b9e77;stroke:#1b9e77;stroke-width:0.5;" x="147.0" xlink:href="#m956397a2ce" y="149.196531367"/>
     <use style="fill:#1b9e77;stroke:#1b9e77;stroke-width:0.5;" x="165.6" xlink:href="#m956397a2ce" y="126.766949083"/>
     <use style="fill:#1b9e77;stroke:#1b9e77;stroke-width:0.5;" x="184.2" xlink:href="#m956397a2ce" y="128.34898772"/>
     <use style="fill:#1b9e77;stroke:#1b9e77;stroke-width:0.5;" x="202.8" xlink:href="#m956397a2ce" y="129.584350758"/>
     <use style="fill:#1b9e77;stroke:#1b9e77;stroke-width:0.5;" x="221.4" xlink:href="#m956397a2ce" y="120.056550909"/>
     <use style="fill:#1b9e77;stroke:#1b9e77;stroke-width:0.5;" x="240.0" xlink:href="#m956397a2ce" y="110.918221489"/>
     <use style="fill:#1b9e77;stroke:#1b9e77;stroke-width:0.5;" x="258.6" xlink:href="#m956397a2ce" y="108.190320027"/>
     <use style="fill:#1b9e77;stroke:#1b9e77;stroke-width:0.5;" x="277.2" xlink:href="#m956397a2ce" y="107.251596878"/>
     <use style="fill:#1b9e77;stroke:#1b9e77;stroke-width:0.5;" x="295.8" xlink:href="#m956397a2ce" y="107.769374228"/>
     <use style="fill:#1b9e77;stroke:#1b9e77;stroke-width:0.5;" x="314.4" xlink:href="#m956397a2ce" y="107.648831472"/>
     <use style="fill:#1b9e77;stroke:#1b9e77;stroke-width:0.5;" x="333.0" xlink:href="#m956397a2ce" y="112.441919849"/>
     <use style="fill:#1b9e77;stroke:#1b9e77;stroke-width:0.5;" x="351.6" xlink:href="#m956397a2ce" y="111.306560186"/>
     <use style="fill:#1b9e77;stroke:#1b9e77;stroke-width:0.5;" x="370.2" xlink:href="#m956397a2ce" y="114.895324852"/>
    </g>
   </g>
   <g id="line2d_3">
    <g clip-path="url(#p59be309332)">
     <use style="fill:#1b9e77;stroke:#1b9e77;stroke-width:0.5;" x="54.0" xlink:href="#m956397a2ce" y="249.398527585"/>
     <use style="fill:#1b9e77;stroke:#1b9e77;stroke-width:0.5;" x="72.6" xlink:href="#m956397a2ce" y="90.7210235521"/>
     <use style="fill:#1b9e77;stroke:#1b9e77;stroke-width:0.5;" x="91.2" xlink:href="#m956397a2ce" y="80.2796592138"/>
     <use style="fill:#1b9e77;stroke:#1b9e77;stroke-width:0.5;" x="109.8" xlink:href="#m956397a2ce" y="74.3963335372"/>
     <use style="fill:#1b9e77;stroke:#1b9e77;stroke-width:0.5;" x="128.4" xlink:href="#m956397a2ce" y="141.148581568"/>
     <use style="fill:#1b9e77;stroke:#1b9e77;stroke-width:0.5;" x="147.0" xlink:href="#m956397a2ce" y="57.3895040145"/>
     <use style="fill:#1b9e77;stroke:#1b9e77;stroke-width:0.5;" x="165.6" xlink:href="#m956397a2ce" y="55.2473499441"/>
     <use style="fill:#1b9e77;stroke:#1b9e77;stroke-width:0.5;" x="184.2" xlink:href="#m956397a2ce" y="74.3905435061"/>
     <use style="fill:#1b9e77;stroke:#1b9e77;stroke-width:0.5;" x="202.8" xlink:href="#m956397a2ce" y="66.9802758927"/>
     <use style="fill:#1b9e77;stroke:#1b9e77;stroke-width:0.5;" x="221.4" xlink:href="#m956397a2ce" y="60.6026348306"/>
     <use style="fill:#1b9e77;stroke:#1b9e77;stroke-width:0.5;" x="240.0" xlink:href="#m956397a2ce" y="49.850243531"/>
     <use style="fill:#1b9e77;stroke:#1b9e77;stroke-width:0.5;" x="258.6" xlink:href="#m956397a2ce" y="58.3659746556"/>
     <use style="fill:#1b9e77;stroke:#1b9e77;stroke-width:0.5;" x="277.2" xlink:href="#m956397a2ce" y="57.7841709436"/>
     <use style="fill:#1b9e77;stroke:#1b9e77;stroke-width:0.5;" x="295.8" xlink:href="#m956397a2ce" y="63.3721096207"/>
     <use style="fill:#1b9e77;stroke:#1b9e77;stroke-width:0.5;" x="314.4" xlink:href="#m956397a2ce" y="67.1468851606"/>
     <use style="fill:#1b9e77;stroke:#1b9e77;stroke-width:0.5;" x="333.0" xlink:href="#m956397a2ce" y="65.2281498669"/>
     <use style="fill:#1b9e77;stroke:#1b9e77;stroke-width:0.5;" x="351.6" xlink:href="#m956397a2ce" y="65.4020900335"/>
     <use style="fill:#1b9e77;stroke:#1b9e77;stroke-width:0.5;" x="370.2" xlink:href="#m956397a2ce" y="71.6566321643"/>
    </g>
   </g>
   <g id="line2d_4">
    <path clip-path="url(#p59be309332)" d="M 54 249.461877 
L 72.6 129.726497 
L 91.2 134.267172 
L 109.8 139.873752 
L 128.4 184.231152 
L 147 103.293018 
L 165.6 91.00715 
L 184.2 101.369766 
L 202.8 98.282313 
L 221.4 90.329593 
L 240 80.384233 
L 258.6 83.278147 
L 277.2 82.517884 
L 295.8 85.570742 
L 314.4 87.397858 
L 333 88.835035 
L 351.6 88.354325 
L 370.2 93.275979 
" style="fill:none;stroke:#1b9e77;stroke-linecap:square;"/>
    <g clip-path="url(#p59be309332)">
     <use style="fill:#1b9e77;stroke:#000000;stroke-width:0.5;" x="54.0" xlink:href="#m702cb5c455" y="249.461877009"/>
     <use style="fill:#1b9e77;stroke:#000000;stroke-width:0.5;" x="72.6" xlink:href="#m702cb5c455" y="129.726496638"/>
     <use style="fill:#1b9e77;stroke:#000000;stroke-width:0.5;" x="91.2" xlink:href="#m702cb5c455" y="134.267172023"/>
     <use style="fill:#1b9e77;stroke:#000000;stroke-width:0.5;" x="109.8" xlink:href="#m702cb5c455" y="139.873751769"/>
     <use style="fill:#1b9e77;stroke:#000000;stroke-width:0.5;" x="128.4" xlink:href="#m702cb5c455" y="184.231152299"/>
     <use style="fill:#1b9e77;stroke:#000000;stroke-width:0.5;" x="147.0" xlink:href="#m702cb5c455" y="103.293017691"/>
     <use style="fill:#1b9e77;stroke:#000000;stroke-width:0.5;" x="165.6" xlink:href="#m702cb5c455" y="91.0071495136"/>
     <use style="fill:#1b9e77;stroke:#000000;stroke-width:0.5;" x="184.2" xlink:href="#m702cb5c455" y="101.369765613"/>
     <use style="fill:#1b9e77;stroke:#000000;stroke-width:0.5;" x="202.8" xlink:href="#m702cb5c455" y="98.2823133251"/>
     <use style="fill:#1b9e77;stroke:#000000;stroke-width:0.5;" x="221.4" xlink:href="#m702cb5c455" y="90.3295928699"/>
     <use style="fill:#1b9e77;stroke:#000000;stroke-width:0.5;" x="240.0" xlink:href="#m702cb5c455" y="80.38423251"/>
     <use style="fill:#1b9e77;stroke:#000000;stroke-width:0.5;" x="258.6" xlink:href="#m702cb5c455" y="83.2781473415"/>
     <use style="fill:#1b9e77;stroke:#000000;stroke-width:0.5;" x="277.2" xlink:href="#m702cb5c455" y="82.5178839107"/>
     <use style="fill:#1b9e77;stroke:#000000;stroke-width:0.5;" x="295.8" xlink:href="#m702cb5c455" y="85.5707419245"/>
     <use style="fill:#1b9e77;stroke:#000000;stroke-width:0.5;" x="314.4" xlink:href="#m702cb5c455" y="87.3978583163"/>
     <use style="fill:#1b9e77;stroke:#000000;stroke-width:0.5;" x="333.0" xlink:href="#m702cb5c455" y="88.8350348582"/>
     <use style="fill:#1b9e77;stroke:#000000;stroke-width:0.5;" x="351.6" xlink:href="#m702cb5c455" y="88.3543251096"/>
     <use style="fill:#1b9e77;stroke:#000000;stroke-width:0.5;" x="370.2" xlink:href="#m702cb5c455" y="93.275978508"/>
    </g>
   </g>
   <g id="patch_3">
    <path d="M 54 28.8 
L 388.8 28.8 
" style="fill:none;stroke:#000000;stroke-linecap:square;stroke-linejoin:miter;"/>
   </g>
   <g id="patch_4">
    <path d="M 388.8 252 
L 388.8 28.8 
" style="fill:none;stroke:#000000;stroke-linecap:square;stroke-linejoin:miter;"/>
   </g>
   <g id="patch_5">
    <path d="M 54 252 
L 388.8 252 
" style="fill:none;stroke:#000000;stroke-linecap:square;stroke-linejoin:miter;"/>
   </g>
   <g id="patch_6">
    <path d="M 54 252 
L 54 28.8 
" style="fill:none;stroke:#000000;stroke-linecap:square;stroke-linejoin:miter;"/>
   </g>
   <g id="matplotlib.axis_1">
    <g id="xtick_1">
     <g id="line2d_5">
      <defs>
       <path d="M 0 0 
L 0 -4 
" id="mcd7a02f5d5" style="stroke:#000000;stroke-width:0.5;"/>
      </defs>
      <g>
       <use style="stroke:#000000;stroke-width:0.5;" x="54.0" xlink:href="#mcd7a02f5d5" y="252.0"/>
      </g>
     </g>
     <g id="line2d_6">
      <defs>
       <path d="M 0 0 
L 0 4 
" id="m131ab7b9f1" style="stroke:#000000;stroke-width:0.5;"/>
      </defs>
      <g>
       <use style="stroke:#000000;stroke-width:0.5;" x="54.0" xlink:href="#m131ab7b9f1" y="28.8"/>
      </g>
     </g>
     <g id="text_1">
      <!-- 2 -->
      <defs>
       <path d="M 19.1875 8.296875 
L 53.609375 8.296875 
L 53.609375 0 
L 7.328125 0 
L 7.328125 8.296875 
Q 12.9375 14.109375 22.625 23.890625 
Q 32.328125 33.6875 34.8125 36.53125 
Q 39.546875 41.84375 41.421875 45.53125 
Q 43.3125 49.21875 43.3125 52.78125 
Q 43.3125 58.59375 39.234375 62.25 
Q 35.15625 65.921875 28.609375 65.921875 
Q 23.96875 65.921875 18.8125 64.3125 
Q 13.671875 62.703125 7.8125 59.421875 
L 7.8125 69.390625 
Q 13.765625 71.78125 18.9375 73 
Q 24.125 74.21875 28.421875 74.21875 
Q 39.75 74.21875 46.484375 68.546875 
Q 53.21875 62.890625 53.21875 53.421875 
Q 53.21875 48.921875 51.53125 44.890625 
Q 49.859375 40.875 45.40625 35.40625 
Q 44.1875 33.984375 37.640625 27.21875 
Q 31.109375 20.453125 19.1875 8.296875 
" id="BitstreamVeraSans-Roman-32"/>
      </defs>
      <g transform="translate(50.81875 263.5984375)scale(0.1 -0.1)">
       <use xlink:href="#BitstreamVeraSans-Roman-32"/>
      </g>
     </g>
    </g>
    <g id="xtick_2">
     <g id="line2d_7">
      <g>
       <use style="stroke:#000000;stroke-width:0.5;" x="91.2" xlink:href="#mcd7a02f5d5" y="252.0"/>
      </g>
     </g>
     <g id="line2d_8">
      <g>
       <use style="stroke:#000000;stroke-width:0.5;" x="91.2" xlink:href="#m131ab7b9f1" y="28.8"/>
      </g>
     </g>
     <g id="text_2">
      <!-- 4 -->
      <defs>
       <path d="M 37.796875 64.3125 
L 12.890625 25.390625 
L 37.796875 25.390625 
z
M 35.203125 72.90625 
L 47.609375 72.90625 
L 47.609375 25.390625 
L 58.015625 25.390625 
L 58.015625 17.1875 
L 47.609375 17.1875 
L 47.609375 0 
L 37.796875 0 
L 37.796875 17.1875 
L 4.890625 17.1875 
L 4.890625 26.703125 
z
" id="BitstreamVeraSans-Roman-34"/>
      </defs>
      <g transform="translate(88.01875 263.5984375)scale(0.1 -0.1)">
       <use xlink:href="#BitstreamVeraSans-Roman-34"/>
      </g>
     </g>
    </g>
    <g id="xtick_3">
     <g id="line2d_9">
      <g>
       <use style="stroke:#000000;stroke-width:0.5;" x="128.4" xlink:href="#mcd7a02f5d5" y="252.0"/>
      </g>
     </g>
     <g id="line2d_10">
      <g>
       <use style="stroke:#000000;stroke-width:0.5;" x="128.4" xlink:href="#m131ab7b9f1" y="28.8"/>
      </g>
     </g>
     <g id="text_3">
      <!-- 6 -->
      <defs>
       <path d="M 33.015625 40.375 
Q 26.375 40.375 22.484375 35.828125 
Q 18.609375 31.296875 18.609375 23.390625 
Q 18.609375 15.53125 22.484375 10.953125 
Q 26.375 6.390625 33.015625 6.390625 
Q 39.65625 6.390625 43.53125 10.953125 
Q 47.40625 15.53125 47.40625 23.390625 
Q 47.40625 31.296875 43.53125 35.828125 
Q 39.65625 40.375 33.015625 40.375 
M 52.59375 71.296875 
L 52.59375 62.3125 
Q 48.875 64.0625 45.09375 64.984375 
Q 41.3125 65.921875 37.59375 65.921875 
Q 27.828125 65.921875 22.671875 59.328125 
Q 17.53125 52.734375 16.796875 39.40625 
Q 19.671875 43.65625 24.015625 45.921875 
Q 28.375 48.1875 33.59375 48.1875 
Q 44.578125 48.1875 50.953125 41.515625 
Q 57.328125 34.859375 57.328125 23.390625 
Q 57.328125 12.15625 50.6875 5.359375 
Q 44.046875 -1.421875 33.015625 -1.421875 
Q 20.359375 -1.421875 13.671875 8.265625 
Q 6.984375 17.96875 6.984375 36.375 
Q 6.984375 53.65625 15.1875 63.9375 
Q 23.390625 74.21875 37.203125 74.21875 
Q 40.921875 74.21875 44.703125 73.484375 
Q 48.484375 72.75 52.59375 71.296875 
" id="BitstreamVeraSans-Roman-36"/>
      </defs>
      <g transform="translate(125.21875 263.5984375)scale(0.1 -0.1)">
       <use xlink:href="#BitstreamVeraSans-Roman-36"/>
      </g>
     </g>
    </g>
    <g id="xtick_4">
     <g id="line2d_11">
      <g>
       <use style="stroke:#000000;stroke-width:0.5;" x="165.6" xlink:href="#mcd7a02f5d5" y="252.0"/>
      </g>
     </g>
     <g id="line2d_12">
      <g>
       <use style="stroke:#000000;stroke-width:0.5;" x="165.6" xlink:href="#m131ab7b9f1" y="28.8"/>
      </g>
     </g>
     <g id="text_4">
      <!-- 8 -->
      <defs>
       <path d="M 31.78125 34.625 
Q 24.75 34.625 20.71875 30.859375 
Q 16.703125 27.09375 16.703125 20.515625 
Q 16.703125 13.921875 20.71875 10.15625 
Q 24.75 6.390625 31.78125 6.390625 
Q 38.8125 6.390625 42.859375 10.171875 
Q 46.921875 13.96875 46.921875 20.515625 
Q 46.921875 27.09375 42.890625 30.859375 
Q 38.875 34.625 31.78125 34.625 
M 21.921875 38.8125 
Q 15.578125 40.375 12.03125 44.71875 
Q 8.5 49.078125 8.5 55.328125 
Q 8.5 64.0625 14.71875 69.140625 
Q 20.953125 74.21875 31.78125 74.21875 
Q 42.671875 74.21875 48.875 69.140625 
Q 55.078125 64.0625 55.078125 55.328125 
Q 55.078125 49.078125 51.53125 44.71875 
Q 48 40.375 41.703125 38.8125 
Q 48.828125 37.15625 52.796875 32.3125 
Q 56.78125 27.484375 56.78125 20.515625 
Q 56.78125 9.90625 50.3125 4.234375 
Q 43.84375 -1.421875 31.78125 -1.421875 
Q 19.734375 -1.421875 13.25 4.234375 
Q 6.78125 9.90625 6.78125 20.515625 
Q 6.78125 27.484375 10.78125 32.3125 
Q 14.796875 37.15625 21.921875 38.8125 
M 18.3125 54.390625 
Q 18.3125 48.734375 21.84375 45.5625 
Q 25.390625 42.390625 31.78125 42.390625 
Q 38.140625 42.390625 41.71875 45.5625 
Q 45.3125 48.734375 45.3125 54.390625 
Q 45.3125 60.0625 41.71875 63.234375 
Q 38.140625 66.40625 31.78125 66.40625 
Q 25.390625 66.40625 21.84375 63.234375 
Q 18.3125 60.0625 18.3125 54.390625 
" id="BitstreamVeraSans-Roman-38"/>
      </defs>
      <g transform="translate(162.41875 263.5984375)scale(0.1 -0.1)">
       <use xlink:href="#BitstreamVeraSans-Roman-38"/>
      </g>
     </g>
    </g>
    <g id="xtick_5">
     <g id="line2d_13">
      <g>
       <use style="stroke:#000000;stroke-width:0.5;" x="202.8" xlink:href="#mcd7a02f5d5" y="252.0"/>
      </g>
     </g>
     <g id="line2d_14">
      <g>
       <use style="stroke:#000000;stroke-width:0.5;" x="202.8" xlink:href="#m131ab7b9f1" y="28.8"/>
      </g>
     </g>
     <g id="text_5">
      <!-- 10 -->
      <defs>
       <path d="M 31.78125 66.40625 
Q 24.171875 66.40625 20.328125 58.90625 
Q 16.5 51.421875 16.5 36.375 
Q 16.5 21.390625 20.328125 13.890625 
Q 24.171875 6.390625 31.78125 6.390625 
Q 39.453125 6.390625 43.28125 13.890625 
Q 47.125 21.390625 47.125 36.375 
Q 47.125 51.421875 43.28125 58.90625 
Q 39.453125 66.40625 31.78125 66.40625 
M 31.78125 74.21875 
Q 44.046875 74.21875 50.515625 64.515625 
Q 56.984375 54.828125 56.984375 36.375 
Q 56.984375 17.96875 50.515625 8.265625 
Q 44.046875 -1.421875 31.78125 -1.421875 
Q 19.53125 -1.421875 13.0625 8.265625 
Q 6.59375 17.96875 6.59375 36.375 
Q 6.59375 54.828125 13.0625 64.515625 
Q 19.53125 74.21875 31.78125 74.21875 
" id="BitstreamVeraSans-Roman-30"/>
       <path d="M 12.40625 8.296875 
L 28.515625 8.296875 
L 28.515625 63.921875 
L 10.984375 60.40625 
L 10.984375 69.390625 
L 28.421875 72.90625 
L 38.28125 72.90625 
L 38.28125 8.296875 
L 54.390625 8.296875 
L 54.390625 0 
L 12.40625 0 
z
" id="BitstreamVeraSans-Roman-31"/>
      </defs>
      <g transform="translate(196.4375 263.5984375)scale(0.1 -0.1)">
       <use xlink:href="#BitstreamVeraSans-Roman-31"/>
       <use x="63.623046875" xlink:href="#BitstreamVeraSans-Roman-30"/>
      </g>
     </g>
    </g>
    <g id="xtick_6">
     <g id="line2d_15">
      <g>
       <use style="stroke:#000000;stroke-width:0.5;" x="240.0" xlink:href="#mcd7a02f5d5" y="252.0"/>
      </g>
     </g>
     <g id="line2d_16">
      <g>
       <use style="stroke:#000000;stroke-width:0.5;" x="240.0" xlink:href="#m131ab7b9f1" y="28.8"/>
      </g>
     </g>
     <g id="text_6">
      <!-- 12 -->
      <g transform="translate(233.6375 263.5984375)scale(0.1 -0.1)">
       <use xlink:href="#BitstreamVeraSans-Roman-31"/>
       <use x="63.623046875" xlink:href="#BitstreamVeraSans-Roman-32"/>
      </g>
     </g>
    </g>
    <g id="xtick_7">
     <g id="line2d_17">
      <g>
       <use style="stroke:#000000;stroke-width:0.5;" x="277.2" xlink:href="#mcd7a02f5d5" y="252.0"/>
      </g>
     </g>
     <g id="line2d_18">
      <g>
       <use style="stroke:#000000;stroke-width:0.5;" x="277.2" xlink:href="#m131ab7b9f1" y="28.8"/>
      </g>
     </g>
     <g id="text_7">
      <!-- 14 -->
      <g transform="translate(270.8375 263.5984375)scale(0.1 -0.1)">
       <use xlink:href="#BitstreamVeraSans-Roman-31"/>
       <use x="63.623046875" xlink:href="#BitstreamVeraSans-Roman-34"/>
      </g>
     </g>
    </g>
    <g id="xtick_8">
     <g id="line2d_19">
      <g>
       <use style="stroke:#000000;stroke-width:0.5;" x="314.4" xlink:href="#mcd7a02f5d5" y="252.0"/>
      </g>
     </g>
     <g id="line2d_20">
      <g>
       <use style="stroke:#000000;stroke-width:0.5;" x="314.4" xlink:href="#m131ab7b9f1" y="28.8"/>
      </g>
     </g>
     <g id="text_8">
      <!-- 16 -->
      <g transform="translate(308.0375 263.5984375)scale(0.1 -0.1)">
       <use xlink:href="#BitstreamVeraSans-Roman-31"/>
       <use x="63.623046875" xlink:href="#BitstreamVeraSans-Roman-36"/>
      </g>
     </g>
    </g>
    <g id="xtick_9">
     <g id="line2d_21">
      <g>
       <use style="stroke:#000000;stroke-width:0.5;" x="351.6" xlink:href="#mcd7a02f5d5" y="252.0"/>
      </g>
     </g>
     <g id="line2d_22">
      <g>
       <use style="stroke:#000000;stroke-width:0.5;" x="351.6" xlink:href="#m131ab7b9f1" y="28.8"/>
      </g>
     </g>
     <g id="text_9">
      <!-- 18 -->
      <g transform="translate(345.2375 263.5984375)scale(0.1 -0.1)">
       <use xlink:href="#BitstreamVeraSans-Roman-31"/>
       <use x="63.623046875" xlink:href="#BitstreamVeraSans-Roman-38"/>
      </g>
     </g>
    </g>
    <g id="xtick_10">
     <g id="line2d_23">
      <g>
       <use style="stroke:#000000;stroke-width:0.5;" x="388.8" xlink:href="#mcd7a02f5d5" y="252.0"/>
      </g>
     </g>
     <g id="line2d_24">
      <g>
       <use style="stroke:#000000;stroke-width:0.5;" x="388.8" xlink:href="#m131ab7b9f1" y="28.8"/>
      </g>
     </g>
     <g id="text_10">
      <!-- 20 -->
      <g transform="translate(382.4375 263.5984375)scale(0.1 -0.1)">
       <use xlink:href="#BitstreamVeraSans-Roman-32"/>
       <use x="63.623046875" xlink:href="#BitstreamVeraSans-Roman-30"/>
      </g>
     </g>
    </g>
    <g id="text_11">
     <!-- nClusters -->
     <defs>
      <path d="M 54.890625 33.015625 
L 54.890625 0 
L 45.90625 0 
L 45.90625 32.71875 
Q 45.90625 40.484375 42.875 44.328125 
Q 39.84375 48.1875 33.796875 48.1875 
Q 26.515625 48.1875 22.3125 43.546875 
Q 18.109375 38.921875 18.109375 30.90625 
L 18.109375 0 
L 9.078125 0 
L 9.078125 54.6875 
L 18.109375 54.6875 
L 18.109375 46.1875 
Q 21.34375 51.125 25.703125 53.5625 
Q 30.078125 56 35.796875 56 
Q 45.21875 56 50.046875 50.171875 
Q 54.890625 44.34375 54.890625 33.015625 
" id="BitstreamVeraSans-Roman-6e"/>
      <path d="M 9.421875 75.984375 
L 18.40625 75.984375 
L 18.40625 0 
L 9.421875 0 
z
" id="BitstreamVeraSans-Roman-6c"/>
      <path d="M 64.40625 67.28125 
L 64.40625 56.890625 
Q 59.421875 61.53125 53.78125 63.8125 
Q 48.140625 66.109375 41.796875 66.109375 
Q 29.296875 66.109375 22.65625 58.46875 
Q 16.015625 50.828125 16.015625 36.375 
Q 16.015625 21.96875 22.65625 14.328125 
Q 29.296875 6.6875 41.796875 6.6875 
Q 48.140625 6.6875 53.78125 8.984375 
Q 59.421875 11.28125 64.40625 15.921875 
L 64.40625 5.609375 
Q 59.234375 2.09375 53.4375 0.328125 
Q 47.65625 -1.421875 41.21875 -1.421875 
Q 24.65625 -1.421875 15.125 8.703125 
Q 5.609375 18.84375 5.609375 36.375 
Q 5.609375 53.953125 15.125 64.078125 
Q 24.65625 74.21875 41.21875 74.21875 
Q 47.75 74.21875 53.53125 72.484375 
Q 59.328125 70.75 64.40625 67.28125 
" id="BitstreamVeraSans-Roman-43"/>
      <path d="M 56.203125 29.59375 
L 56.203125 25.203125 
L 14.890625 25.203125 
Q 15.484375 15.921875 20.484375 11.0625 
Q 25.484375 6.203125 34.421875 6.203125 
Q 39.59375 6.203125 44.453125 7.46875 
Q 49.3125 8.734375 54.109375 11.28125 
L 54.109375 2.78125 
Q 49.265625 0.734375 44.1875 -0.34375 
Q 39.109375 -1.421875 33.890625 -1.421875 
Q 20.796875 -1.421875 13.15625 6.1875 
Q 5.515625 13.8125 5.515625 26.8125 
Q 5.515625 40.234375 12.765625 48.109375 
Q 20.015625 56 32.328125 56 
Q 43.359375 56 49.78125 48.890625 
Q 56.203125 41.796875 56.203125 29.59375 
M 47.21875 32.234375 
Q 47.125 39.59375 43.09375 43.984375 
Q 39.0625 48.390625 32.421875 48.390625 
Q 24.90625 48.390625 20.390625 44.140625 
Q 15.875 39.890625 15.1875 32.171875 
z
" id="BitstreamVeraSans-Roman-65"/>
      <path d="M 18.3125 70.21875 
L 18.3125 54.6875 
L 36.8125 54.6875 
L 36.8125 47.703125 
L 18.3125 47.703125 
L 18.3125 18.015625 
Q 18.3125 11.328125 20.140625 9.421875 
Q 21.96875 7.515625 27.59375 7.515625 
L 36.8125 7.515625 
L 36.8125 0 
L 27.59375 0 
Q 17.1875 0 13.234375 3.875 
Q 9.28125 7.765625 9.28125 18.015625 
L 9.28125 47.703125 
L 2.6875 47.703125 
L 2.6875 54.6875 
L 9.28125 54.6875 
L 9.28125 70.21875 
z
" id="BitstreamVeraSans-Roman-74"/>
      <path d="M 8.5 21.578125 
L 8.5 54.6875 
L 17.484375 54.6875 
L 17.484375 21.921875 
Q 17.484375 14.15625 20.5 10.265625 
Q 23.53125 6.390625 29.59375 6.390625 
Q 36.859375 6.390625 41.078125 11.03125 
Q 45.3125 15.671875 45.3125 23.6875 
L 45.3125 54.6875 
L 54.296875 54.6875 
L 54.296875 0 
L 45.3125 0 
L 45.3125 8.40625 
Q 42.046875 3.421875 37.71875 1 
Q 33.40625 -1.421875 27.6875 -1.421875 
Q 18.265625 -1.421875 13.375 4.4375 
Q 8.5 10.296875 8.5 21.578125 
" id="BitstreamVeraSans-Roman-75"/>
      <path d="M 41.109375 46.296875 
Q 39.59375 47.171875 37.8125 47.578125 
Q 36.03125 48 33.890625 48 
Q 26.265625 48 22.1875 43.046875 
Q 18.109375 38.09375 18.109375 28.8125 
L 18.109375 0 
L 9.078125 0 
L 9.078125 54.6875 
L 18.109375 54.6875 
L 18.109375 46.1875 
Q 20.953125 51.171875 25.484375 53.578125 
Q 30.03125 56 36.53125 56 
Q 37.453125 56 38.578125 55.875 
Q 39.703125 55.765625 41.0625 55.515625 
z
" id="BitstreamVeraSans-Roman-72"/>
      <path d="M 44.28125 53.078125 
L 44.28125 44.578125 
Q 40.484375 46.53125 36.375 47.5 
Q 32.28125 48.484375 27.875 48.484375 
Q 21.1875 48.484375 17.84375 46.4375 
Q 14.5 44.390625 14.5 40.28125 
Q 14.5 37.15625 16.890625 35.375 
Q 19.28125 33.59375 26.515625 31.984375 
L 29.59375 31.296875 
Q 39.15625 29.25 43.1875 25.515625 
Q 47.21875 21.78125 47.21875 15.09375 
Q 47.21875 7.46875 41.1875 3.015625 
Q 35.15625 -1.421875 24.609375 -1.421875 
Q 20.21875 -1.421875 15.453125 -0.5625 
Q 10.6875 0.296875 5.421875 2 
L 5.421875 11.28125 
Q 10.40625 8.6875 15.234375 7.390625 
Q 20.0625 6.109375 24.8125 6.109375 
Q 31.15625 6.109375 34.5625 8.28125 
Q 37.984375 10.453125 37.984375 14.40625 
Q 37.984375 18.0625 35.515625 20.015625 
Q 33.0625 21.96875 24.703125 23.78125 
L 21.578125 24.515625 
Q 13.234375 26.265625 9.515625 29.90625 
Q 5.8125 33.546875 5.8125 39.890625 
Q 5.8125 47.609375 11.28125 51.796875 
Q 16.75 56 26.8125 56 
Q 31.78125 56 36.171875 55.265625 
Q 40.578125 54.546875 44.28125 53.078125 
" id="BitstreamVeraSans-Roman-73"/>
     </defs>
     <g transform="translate(197.88046875 278.2765625)scale(0.1 -0.1)">
      <use xlink:href="#BitstreamVeraSans-Roman-6e"/>
      <use x="63.37890625" xlink:href="#BitstreamVeraSans-Roman-43"/>
      <use x="133.203125" xlink:href="#BitstreamVeraSans-Roman-6c"/>
      <use x="160.986328125" xlink:href="#BitstreamVeraSans-Roman-75"/>
      <use x="224.365234375" xlink:href="#BitstreamVeraSans-Roman-73"/>
      <use x="276.46484375" xlink:href="#BitstreamVeraSans-Roman-74"/>
      <use x="315.673828125" xlink:href="#BitstreamVeraSans-Roman-65"/>
      <use x="377.197265625" xlink:href="#BitstreamVeraSans-Roman-72"/>
      <use x="418.310546875" xlink:href="#BitstreamVeraSans-Roman-73"/>
     </g>
    </g>
   </g>
   <g id="matplotlib.axis_2">
    <g id="ytick_1">
     <g id="line2d_25">
      <defs>
       <path d="M 0 0 
L 4 0 
" id="m19bcc01193" style="stroke:#000000;stroke-width:0.5;"/>
      </defs>
      <g>
       <use style="stroke:#000000;stroke-width:0.5;" x="54.0" xlink:href="#m19bcc01193" y="252.0"/>
      </g>
     </g>
     <g id="line2d_26">
      <defs>
       <path d="M 0 0 
L -4 0 
" id="mbb4949ac36" style="stroke:#000000;stroke-width:0.5;"/>
      </defs>
      <g>
       <use style="stroke:#000000;stroke-width:0.5;" x="388.8" xlink:href="#mbb4949ac36" y="252.0"/>
      </g>
     </g>
     <g id="text_12">
      <!-- 0.8 -->
      <defs>
       <path d="M 10.6875 12.40625 
L 21 12.40625 
L 21 0 
L 10.6875 0 
z
" id="BitstreamVeraSans-Roman-2e"/>
      </defs>
      <g transform="translate(34.096875 254.759375)scale(0.1 -0.1)">
       <use xlink:href="#BitstreamVeraSans-Roman-30"/>
       <use x="63.623046875" xlink:href="#BitstreamVeraSans-Roman-2e"/>
       <use x="95.41015625" xlink:href="#BitstreamVeraSans-Roman-38"/>
      </g>
     </g>
    </g>
    <g id="ytick_2">
     <g id="line2d_27">
      <g>
       <use style="stroke:#000000;stroke-width:0.5;" x="54.0" xlink:href="#m19bcc01193" y="224.1"/>
      </g>
     </g>
     <g id="line2d_28">
      <g>
       <use style="stroke:#000000;stroke-width:0.5;" x="388.8" xlink:href="#mbb4949ac36" y="224.1"/>
      </g>
     </g>
     <g id="text_13">
      <!-- 0.9 -->
      <defs>
       <path d="M 10.984375 1.515625 
L 10.984375 10.5 
Q 14.703125 8.734375 18.5 7.8125 
Q 22.3125 6.890625 25.984375 6.890625 
Q 35.75 6.890625 40.890625 13.453125 
Q 46.046875 20.015625 46.78125 33.40625 
Q 43.953125 29.203125 39.59375 26.953125 
Q 35.25 24.703125 29.984375 24.703125 
Q 19.046875 24.703125 12.671875 31.3125 
Q 6.296875 37.9375 6.296875 49.421875 
Q 6.296875 60.640625 12.9375 67.421875 
Q 19.578125 74.21875 30.609375 74.21875 
Q 43.265625 74.21875 49.921875 64.515625 
Q 56.59375 54.828125 56.59375 36.375 
Q 56.59375 19.140625 48.40625 8.859375 
Q 40.234375 -1.421875 26.421875 -1.421875 
Q 22.703125 -1.421875 18.890625 -0.6875 
Q 15.09375 0.046875 10.984375 1.515625 
M 30.609375 32.421875 
Q 37.25 32.421875 41.125 36.953125 
Q 45.015625 41.5 45.015625 49.421875 
Q 45.015625 57.28125 41.125 61.84375 
Q 37.25 66.40625 30.609375 66.40625 
Q 23.96875 66.40625 20.09375 61.84375 
Q 16.21875 57.28125 16.21875 49.421875 
Q 16.21875 41.5 20.09375 36.953125 
Q 23.96875 32.421875 30.609375 32.421875 
" id="BitstreamVeraSans-Roman-39"/>
      </defs>
      <g transform="translate(34.096875 226.859375)scale(0.1 -0.1)">
       <use xlink:href="#BitstreamVeraSans-Roman-30"/>
       <use x="63.623046875" xlink:href="#BitstreamVeraSans-Roman-2e"/>
       <use x="95.41015625" xlink:href="#BitstreamVeraSans-Roman-39"/>
      </g>
     </g>
    </g>
    <g id="ytick_3">
     <g id="line2d_29">
      <g>
       <use style="stroke:#000000;stroke-width:0.5;" x="54.0" xlink:href="#m19bcc01193" y="196.2"/>
      </g>
     </g>
     <g id="line2d_30">
      <g>
       <use style="stroke:#000000;stroke-width:0.5;" x="388.8" xlink:href="#mbb4949ac36" y="196.2"/>
      </g>
     </g>
     <g id="text_14">
      <!-- 1.0 -->
      <g transform="translate(34.096875 198.959375)scale(0.1 -0.1)">
       <use xlink:href="#BitstreamVeraSans-Roman-31"/>
       <use x="63.623046875" xlink:href="#BitstreamVeraSans-Roman-2e"/>
       <use x="95.41015625" xlink:href="#BitstreamVeraSans-Roman-30"/>
      </g>
     </g>
    </g>
    <g id="ytick_4">
     <g id="line2d_31">
      <g>
       <use style="stroke:#000000;stroke-width:0.5;" x="54.0" xlink:href="#m19bcc01193" y="168.3"/>
      </g>
     </g>
     <g id="line2d_32">
      <g>
       <use style="stroke:#000000;stroke-width:0.5;" x="388.8" xlink:href="#mbb4949ac36" y="168.3"/>
      </g>
     </g>
     <g id="text_15">
      <!-- 1.1 -->
      <g transform="translate(34.096875 171.059375)scale(0.1 -0.1)">
       <use xlink:href="#BitstreamVeraSans-Roman-31"/>
       <use x="63.623046875" xlink:href="#BitstreamVeraSans-Roman-2e"/>
       <use x="95.41015625" xlink:href="#BitstreamVeraSans-Roman-31"/>
      </g>
     </g>
    </g>
    <g id="ytick_5">
     <g id="line2d_33">
      <g>
       <use style="stroke:#000000;stroke-width:0.5;" x="54.0" xlink:href="#m19bcc01193" y="140.4"/>
      </g>
     </g>
     <g id="line2d_34">
      <g>
       <use style="stroke:#000000;stroke-width:0.5;" x="388.8" xlink:href="#mbb4949ac36" y="140.4"/>
      </g>
     </g>
     <g id="text_16">
      <!-- 1.2 -->
      <g transform="translate(34.096875 143.159375)scale(0.1 -0.1)">
       <use xlink:href="#BitstreamVeraSans-Roman-31"/>
       <use x="63.623046875" xlink:href="#BitstreamVeraSans-Roman-2e"/>
       <use x="95.41015625" xlink:href="#BitstreamVeraSans-Roman-32"/>
      </g>
     </g>
    </g>
    <g id="ytick_6">
     <g id="line2d_35">
      <g>
       <use style="stroke:#000000;stroke-width:0.5;" x="54.0" xlink:href="#m19bcc01193" y="112.5"/>
      </g>
     </g>
     <g id="line2d_36">
      <g>
       <use style="stroke:#000000;stroke-width:0.5;" x="388.8" xlink:href="#mbb4949ac36" y="112.5"/>
      </g>
     </g>
     <g id="text_17">
      <!-- 1.3 -->
      <defs>
       <path d="M 40.578125 39.3125 
Q 47.65625 37.796875 51.625 33 
Q 55.609375 28.21875 55.609375 21.1875 
Q 55.609375 10.40625 48.1875 4.484375 
Q 40.765625 -1.421875 27.09375 -1.421875 
Q 22.515625 -1.421875 17.65625 -0.515625 
Q 12.796875 0.390625 7.625 2.203125 
L 7.625 11.71875 
Q 11.71875 9.328125 16.59375 8.109375 
Q 21.484375 6.890625 26.8125 6.890625 
Q 36.078125 6.890625 40.9375 10.546875 
Q 45.796875 14.203125 45.796875 21.1875 
Q 45.796875 27.640625 41.28125 31.265625 
Q 36.765625 34.90625 28.71875 34.90625 
L 20.21875 34.90625 
L 20.21875 43.015625 
L 29.109375 43.015625 
Q 36.375 43.015625 40.234375 45.921875 
Q 44.09375 48.828125 44.09375 54.296875 
Q 44.09375 59.90625 40.109375 62.90625 
Q 36.140625 65.921875 28.71875 65.921875 
Q 24.65625 65.921875 20.015625 65.03125 
Q 15.375 64.15625 9.8125 62.3125 
L 9.8125 71.09375 
Q 15.4375 72.65625 20.34375 73.4375 
Q 25.25 74.21875 29.59375 74.21875 
Q 40.828125 74.21875 47.359375 69.109375 
Q 53.90625 64.015625 53.90625 55.328125 
Q 53.90625 49.265625 50.4375 45.09375 
Q 46.96875 40.921875 40.578125 39.3125 
" id="BitstreamVeraSans-Roman-33"/>
      </defs>
      <g transform="translate(34.096875 115.259375)scale(0.1 -0.1)">
       <use xlink:href="#BitstreamVeraSans-Roman-31"/>
       <use x="63.623046875" xlink:href="#BitstreamVeraSans-Roman-2e"/>
       <use x="95.41015625" xlink:href="#BitstreamVeraSans-Roman-33"/>
      </g>
     </g>
    </g>
    <g id="ytick_7">
     <g id="line2d_37">
      <g>
       <use style="stroke:#000000;stroke-width:0.5;" x="54.0" xlink:href="#m19bcc01193" y="84.6"/>
      </g>
     </g>
     <g id="line2d_38">
      <g>
       <use style="stroke:#000000;stroke-width:0.5;" x="388.8" xlink:href="#mbb4949ac36" y="84.6"/>
      </g>
     </g>
     <g id="text_18">
      <!-- 1.4 -->
      <g transform="translate(34.096875 87.359375)scale(0.1 -0.1)">
       <use xlink:href="#BitstreamVeraSans-Roman-31"/>
       <use x="63.623046875" xlink:href="#BitstreamVeraSans-Roman-2e"/>
       <use x="95.41015625" xlink:href="#BitstreamVeraSans-Roman-34"/>
      </g>
     </g>
    </g>
    <g id="ytick_8">
     <g id="line2d_39">
      <g>
       <use style="stroke:#000000;stroke-width:0.5;" x="54.0" xlink:href="#m19bcc01193" y="56.7"/>
      </g>
     </g>
     <g id="line2d_40">
      <g>
       <use style="stroke:#000000;stroke-width:0.5;" x="388.8" xlink:href="#mbb4949ac36" y="56.7"/>
      </g>
     </g>
     <g id="text_19">
      <!-- 1.5 -->
      <defs>
       <path d="M 10.796875 72.90625 
L 49.515625 72.90625 
L 49.515625 64.59375 
L 19.828125 64.59375 
L 19.828125 46.734375 
Q 21.96875 47.46875 24.109375 47.828125 
Q 26.265625 48.1875 28.421875 48.1875 
Q 40.625 48.1875 47.75 41.5 
Q 54.890625 34.8125 54.890625 23.390625 
Q 54.890625 11.625 47.5625 5.09375 
Q 40.234375 -1.421875 26.90625 -1.421875 
Q 22.3125 -1.421875 17.546875 -0.640625 
Q 12.796875 0.140625 7.71875 1.703125 
L 7.71875 11.625 
Q 12.109375 9.234375 16.796875 8.0625 
Q 21.484375 6.890625 26.703125 6.890625 
Q 35.15625 6.890625 40.078125 11.328125 
Q 45.015625 15.765625 45.015625 23.390625 
Q 45.015625 31 40.078125 35.4375 
Q 35.15625 39.890625 26.703125 39.890625 
Q 22.75 39.890625 18.8125 39.015625 
Q 14.890625 38.140625 10.796875 36.28125 
z
" id="BitstreamVeraSans-Roman-35"/>
      </defs>
      <g transform="translate(34.096875 59.459375)scale(0.1 -0.1)">
       <use xlink:href="#BitstreamVeraSans-Roman-31"/>
       <use x="63.623046875" xlink:href="#BitstreamVeraSans-Roman-2e"/>
       <use x="95.41015625" xlink:href="#BitstreamVeraSans-Roman-35"/>
      </g>
     </g>
    </g>
    <g id="ytick_9">
     <g id="line2d_41">
      <g>
       <use style="stroke:#000000;stroke-width:0.5;" x="54.0" xlink:href="#m19bcc01193" y="28.8"/>
      </g>
     </g>
     <g id="line2d_42">
      <g>
       <use style="stroke:#000000;stroke-width:0.5;" x="388.8" xlink:href="#mbb4949ac36" y="28.8"/>
      </g>
     </g>
     <g id="text_20">
      <!-- 1.6 -->
      <g transform="translate(34.096875 31.559375)scale(0.1 -0.1)">
       <use xlink:href="#BitstreamVeraSans-Roman-31"/>
       <use x="63.623046875" xlink:href="#BitstreamVeraSans-Roman-2e"/>
       <use x="95.41015625" xlink:href="#BitstreamVeraSans-Roman-36"/>
      </g>
     </g>
    </g>
   </g>
   <g id="text_21">
    <!-- Kmeans, Davies-Bouldin -->
    <defs>
     <path id="BitstreamVeraSans-Roman-20"/>
     <path d="M 9.8125 72.90625 
L 19.671875 72.90625 
L 19.671875 42.09375 
L 52.390625 72.90625 
L 65.09375 72.90625 
L 28.90625 38.921875 
L 67.671875 0 
L 54.6875 0 
L 19.671875 35.109375 
L 19.671875 0 
L 9.8125 0 
z
" id="BitstreamVeraSans-Roman-4b"/>
     <path d="M 52 44.1875 
Q 55.375 50.25 60.0625 53.125 
Q 64.75 56 71.09375 56 
Q 79.640625 56 84.28125 50.015625 
Q 88.921875 44.046875 88.921875 33.015625 
L 88.921875 0 
L 79.890625 0 
L 79.890625 32.71875 
Q 79.890625 40.578125 77.09375 44.375 
Q 74.3125 48.1875 68.609375 48.1875 
Q 61.625 48.1875 57.5625 43.546875 
Q 53.515625 38.921875 53.515625 30.90625 
L 53.515625 0 
L 44.484375 0 
L 44.484375 32.71875 
Q 44.484375 40.625 41.703125 44.40625 
Q 38.921875 48.1875 33.109375 48.1875 
Q 26.21875 48.1875 22.15625 43.53125 
Q 18.109375 38.875 18.109375 30.90625 
L 18.109375 0 
L 9.078125 0 
L 9.078125 54.6875 
L 18.109375 54.6875 
L 18.109375 46.1875 
Q 21.1875 51.21875 25.484375 53.609375 
Q 29.78125 56 35.6875 56 
Q 41.65625 56 45.828125 52.96875 
Q 50 49.953125 52 44.1875 
" id="BitstreamVeraSans-Roman-6d"/>
     <path d="M 30.609375 48.390625 
Q 23.390625 48.390625 19.1875 42.75 
Q 14.984375 37.109375 14.984375 27.296875 
Q 14.984375 17.484375 19.15625 11.84375 
Q 23.34375 6.203125 30.609375 6.203125 
Q 37.796875 6.203125 41.984375 11.859375 
Q 46.1875 17.53125 46.1875 27.296875 
Q 46.1875 37.015625 41.984375 42.703125 
Q 37.796875 48.390625 30.609375 48.390625 
M 30.609375 56 
Q 42.328125 56 49.015625 48.375 
Q 55.71875 40.765625 55.71875 27.296875 
Q 55.71875 13.875 49.015625 6.21875 
Q 42.328125 -1.421875 30.609375 -1.421875 
Q 18.84375 -1.421875 12.171875 6.21875 
Q 5.515625 13.875 5.515625 27.296875 
Q 5.515625 40.765625 12.171875 48.375 
Q 18.84375 56 30.609375 56 
" id="BitstreamVeraSans-Roman-6f"/>
     <path d="M 11.71875 12.40625 
L 22.015625 12.40625 
L 22.015625 4 
L 14.015625 -11.625 
L 7.71875 -11.625 
L 11.71875 4 
z
" id="BitstreamVeraSans-Roman-2c"/>
     <path d="M 19.671875 64.796875 
L 19.671875 8.109375 
L 31.59375 8.109375 
Q 46.6875 8.109375 53.6875 14.9375 
Q 60.6875 21.78125 60.6875 36.53125 
Q 60.6875 51.171875 53.6875 57.984375 
Q 46.6875 64.796875 31.59375 64.796875 
z
M 9.8125 72.90625 
L 30.078125 72.90625 
Q 51.265625 72.90625 61.171875 64.09375 
Q 71.09375 55.28125 71.09375 36.53125 
Q 71.09375 17.671875 61.125 8.828125 
Q 51.171875 0 30.078125 0 
L 9.8125 0 
z
" id="BitstreamVeraSans-Roman-44"/>
     <path d="M 9.421875 54.6875 
L 18.40625 54.6875 
L 18.40625 0 
L 9.421875 0 
z
M 9.421875 75.984375 
L 18.40625 75.984375 
L 18.40625 64.59375 
L 9.421875 64.59375 
z
" id="BitstreamVeraSans-Roman-69"/>
     <path d="M 4.890625 31.390625 
L 31.203125 31.390625 
L 31.203125 23.390625 
L 4.890625 23.390625 
z
" id="BitstreamVeraSans-Roman-2d"/>
     <path d="M 2.984375 54.6875 
L 12.5 54.6875 
L 29.59375 8.796875 
L 46.6875 54.6875 
L 56.203125 54.6875 
L 35.6875 0 
L 23.484375 0 
z
" id="BitstreamVeraSans-Roman-76"/>
     <path d="M 45.40625 46.390625 
L 45.40625 75.984375 
L 54.390625 75.984375 
L 54.390625 0 
L 45.40625 0 
L 45.40625 8.203125 
Q 42.578125 3.328125 38.25 0.953125 
Q 33.9375 -1.421875 27.875 -1.421875 
Q 17.96875 -1.421875 11.734375 6.484375 
Q 5.515625 14.40625 5.515625 27.296875 
Q 5.515625 40.1875 11.734375 48.09375 
Q 17.96875 56 27.875 56 
Q 33.9375 56 38.25 53.625 
Q 42.578125 51.265625 45.40625 46.390625 
M 14.796875 27.296875 
Q 14.796875 17.390625 18.875 11.75 
Q 22.953125 6.109375 30.078125 6.109375 
Q 37.203125 6.109375 41.296875 11.75 
Q 45.40625 17.390625 45.40625 27.296875 
Q 45.40625 37.203125 41.296875 42.84375 
Q 37.203125 48.484375 30.078125 48.484375 
Q 22.953125 48.484375 18.875 42.84375 
Q 14.796875 37.203125 14.796875 27.296875 
" id="BitstreamVeraSans-Roman-64"/>
     <path d="M 34.28125 27.484375 
Q 23.390625 27.484375 19.1875 25 
Q 14.984375 22.515625 14.984375 16.5 
Q 14.984375 11.71875 18.140625 8.90625 
Q 21.296875 6.109375 26.703125 6.109375 
Q 34.1875 6.109375 38.703125 11.40625 
Q 43.21875 16.703125 43.21875 25.484375 
L 43.21875 27.484375 
z
M 52.203125 31.203125 
L 52.203125 0 
L 43.21875 0 
L 43.21875 8.296875 
Q 40.140625 3.328125 35.546875 0.953125 
Q 30.953125 -1.421875 24.3125 -1.421875 
Q 15.921875 -1.421875 10.953125 3.296875 
Q 6 8.015625 6 15.921875 
Q 6 25.140625 12.171875 29.828125 
Q 18.359375 34.515625 30.609375 34.515625 
L 43.21875 34.515625 
L 43.21875 35.40625 
Q 43.21875 41.609375 39.140625 45 
Q 35.0625 48.390625 27.6875 48.390625 
Q 23 48.390625 18.546875 47.265625 
Q 14.109375 46.140625 10.015625 43.890625 
L 10.015625 52.203125 
Q 14.9375 54.109375 19.578125 55.046875 
Q 24.21875 56 28.609375 56 
Q 40.484375 56 46.34375 49.84375 
Q 52.203125 43.703125 52.203125 31.203125 
" id="BitstreamVeraSans-Roman-61"/>
     <path d="M 19.671875 34.8125 
L 19.671875 8.109375 
L 35.5 8.109375 
Q 43.453125 8.109375 47.28125 11.40625 
Q 51.125 14.703125 51.125 21.484375 
Q 51.125 28.328125 47.28125 31.5625 
Q 43.453125 34.8125 35.5 34.8125 
z
M 19.671875 64.796875 
L 19.671875 42.828125 
L 34.28125 42.828125 
Q 41.5 42.828125 45.03125 45.53125 
Q 48.578125 48.25 48.578125 53.8125 
Q 48.578125 59.328125 45.03125 62.0625 
Q 41.5 64.796875 34.28125 64.796875 
z
M 9.8125 72.90625 
L 35.015625 72.90625 
Q 46.296875 72.90625 52.390625 68.21875 
Q 58.5 63.53125 58.5 54.890625 
Q 58.5 48.1875 55.375 44.234375 
Q 52.25 40.28125 46.1875 39.3125 
Q 53.46875 37.75 57.5 32.78125 
Q 61.53125 27.828125 61.53125 20.40625 
Q 61.53125 10.640625 54.890625 5.3125 
Q 48.25 0 35.984375 0 
L 9.8125 0 
z
" id="BitstreamVeraSans-Roman-42"/>
    </defs>
    <g transform="translate(148.4803125 23.8)scale(0.12 -0.12)">
     <use xlink:href="#BitstreamVeraSans-Roman-4b"/>
     <use x="65.576171875" xlink:href="#BitstreamVeraSans-Roman-6d"/>
     <use x="162.98828125" xlink:href="#BitstreamVeraSans-Roman-65"/>
     <use x="224.51171875" xlink:href="#BitstreamVeraSans-Roman-61"/>
     <use x="285.791015625" xlink:href="#BitstreamVeraSans-Roman-6e"/>
     <use x="349.169921875" xlink:href="#BitstreamVeraSans-Roman-73"/>
     <use x="401.26953125" xlink:href="#BitstreamVeraSans-Roman-2c"/>
     <use x="433.056640625" xlink:href="#BitstreamVeraSans-Roman-20"/>
     <use x="464.84375" xlink:href="#BitstreamVeraSans-Roman-44"/>
     <use x="541.845703125" xlink:href="#BitstreamVeraSans-Roman-61"/>
     <use x="603.125" xlink:href="#BitstreamVeraSans-Roman-76"/>
     <use x="662.3046875" xlink:href="#BitstreamVeraSans-Roman-69"/>
     <use x="690.087890625" xlink:href="#BitstreamVeraSans-Roman-65"/>
     <use x="751.611328125" xlink:href="#BitstreamVeraSans-Roman-73"/>
     <use x="803.7109375" xlink:href="#BitstreamVeraSans-Roman-2d"/>
     <use x="839.748046875" xlink:href="#BitstreamVeraSans-Roman-42"/>
     <use x="908.3515625" xlink:href="#BitstreamVeraSans-Roman-6f"/>
     <use x="969.533203125" xlink:href="#BitstreamVeraSans-Roman-75"/>
     <use x="1032.91210938" xlink:href="#BitstreamVeraSans-Roman-6c"/>
     <use x="1060.6953125" xlink:href="#BitstreamVeraSans-Roman-64"/>
     <use x="1124.171875" xlink:href="#BitstreamVeraSans-Roman-69"/>
     <use x="1151.95507812" xlink:href="#BitstreamVeraSans-Roman-6e"/>
    </g>
   </g>
  </g>
 </g>
 <defs>
  <clipPath id="p59be309332">
   <rect height="223.2" width="334.8" x="54.0" y="28.8"/>
  </clipPath>
 </defs>
</svg>
